REM DIRINDEX 1\4,1\2\5,1\2\6,1\3\7,1\3\8,1\3\9,1\3\10
REM DIRNAME folder01,folder02,folder03,folder04,folder05,folder06,folder07,folder08,folder09,folder10
TITLE ""
FILE "DISC2Track27.mp3" MP3
  TRACK 01 AUDIO
    TITLE "0:"
    INDEX 01 00:00:00
  TRACK 02 AUDIO
    TITLE "7:cjc107_1896"
    INDEX 01 00:00:01
  TRACK 03 AUDIO
    TITLE "0:"
    INDEX 01 00:03:23
  TRACK 04 AUDIO
    TITLE "8:cjc107_1897"
    INDEX 01 00:04:33
  TRACK 05 AUDIO
    TITLE "0:"
    INDEX 01 00:06:08
  TRACK 06 AUDIO
    TITLE "9:cjc107_1898"
    INDEX 01 00:06:22
  TRACK 07 AUDIO
    TITLE "0:"
    INDEX 01 00:08:44
  TRACK 08 AUDIO
    TITLE "8:cjc107_1899"
    INDEX 01 00:09:16
  TRACK 09 AUDIO
    TITLE "0:"
    INDEX 01 00:10:53
  TRACK 10 AUDIO
    TITLE "9:cjc107_1900"
    INDEX 01 00:10:55
  TRACK 11 AUDIO
    TITLE "0:"
    INDEX 01 00:12:24
  TRACK 12 AUDIO
    TITLE "8:cjc107_1901"
    INDEX 01 00:13:00
  TRACK 13 AUDIO
    TITLE "0:"
    INDEX 01 00:14:60
  TRACK 14 AUDIO
    TITLE "9:cjc107_1902"
    INDEX 01 00:15:01
  TRACK 15 AUDIO
    TITLE "0:"
    INDEX 01 00:18:54
  TRACK 16 AUDIO
    TITLE "8:cjc107_1903"
    INDEX 01 00:19:28
  TRACK 17 AUDIO
    TITLE "0:"
    INDEX 01 00:20:49
  TRACK 18 AUDIO
    TITLE "9:cjc107_1904"
    INDEX 01 00:20:53
  TRACK 19 AUDIO
    TITLE "0:"
    INDEX 01 00:22:34
  TRACK 20 AUDIO
    TITLE "8:cjc107_1905"
    INDEX 01 00:23:01
  TRACK 21 AUDIO
    TITLE "0:"
    INDEX 01 00:24:29
  TRACK 22 AUDIO
    TITLE "9:cjc107_1906"
    INDEX 01 00:24:33
  TRACK 23 AUDIO
    TITLE "0:"
    INDEX 01 00:26:24
  TRACK 24 AUDIO
    TITLE "8:cjc107_1907"
    INDEX 01 00:26:71
  TRACK 25 AUDIO
    TITLE "0:"
    INDEX 01 00:28:06
  TRACK 26 AUDIO
    TITLE "9:cjc107_1908"
    INDEX 01 00:28:08
  TRACK 27 AUDIO
    TITLE "0:"
    INDEX 01 00:31:04
  TRACK 28 AUDIO
    TITLE "8:cjc107_1909"
    INDEX 01 00:31:51
  TRACK 29 AUDIO
    TITLE "0:"
    INDEX 01 00:33:03
  TRACK 30 AUDIO
    TITLE "9:cjc107_1910"
    INDEX 01 00:33:05
  TRACK 31 AUDIO
    TITLE "0:"
    INDEX 01 00:34:47
  TRACK 32 AUDIO
    TITLE "8:cjc107_1911"
    INDEX 01 00:35:15
  TRACK 33 AUDIO
    TITLE "0:"
    INDEX 01 00:36:38
  TRACK 34 AUDIO
    TITLE "9:cjc107_1912"
    INDEX 01 00:36:44
  TRACK 35 AUDIO
    TITLE "0:"
    INDEX 01 00:38:43
  TRACK 36 AUDIO
    TITLE "8:cjc107_1913"
    INDEX 01 00:39:19
  TRACK 37 AUDIO
    TITLE "0:"
    INDEX 01 00:40:36
  TRACK 38 AUDIO
    TITLE "9:cjc107_1914"
    INDEX 01 00:40:42
  TRACK 39 AUDIO
    TITLE "0:"
    INDEX 01 00:43:19
  TRACK 40 AUDIO
    TITLE "8:cjc107_1915"
    INDEX 01 00:43:72
  TRACK 41 AUDIO
    TITLE "0:"
    INDEX 01 00:45:14
  TRACK 42 AUDIO
    TITLE "9:cjc107_1916"
    INDEX 01 00:45:16
  TRACK 43 AUDIO
    TITLE "0:"
    INDEX 01 00:47:56
  TRACK 44 AUDIO
    TITLE "8:cjc107_1917"
    INDEX 01 00:48:26
  TRACK 45 AUDIO
    TITLE "0:"
    INDEX 01 00:49:41
  TRACK 46 AUDIO
    TITLE "9:cjc107_1918"
    INDEX 01 00:49:51
  TRACK 47 AUDIO
    TITLE "0:"
    INDEX 01 00:51:46
  TRACK 48 AUDIO
    TITLE "8:cjc107_1919"
    INDEX 01 00:52:18
  TRACK 49 AUDIO
    TITLE "0:"
    INDEX 01 00:53:31
  TRACK 50 AUDIO
    TITLE "9:cjc107_1920"
    INDEX 01 00:53:39
  TRACK 51 AUDIO
    TITLE "0:"
    INDEX 01 00:55:61
  TRACK 52 AUDIO
    TITLE "8:cjc107_1921"
    INDEX 01 00:56:35
  TRACK 53 AUDIO
    TITLE "0:"
    INDEX 01 00:57:54
  TRACK 54 AUDIO
    TITLE "9:cjc107_1922"
    INDEX 01 00:57:68
  TRACK 55 AUDIO
    TITLE "0:"
    INDEX 01 01:00:37
  TRACK 56 AUDIO
    TITLE "8:cjc107_1923"
    INDEX 01 01:01:05
  TRACK 57 AUDIO
    TITLE "0:"
    INDEX 01 01:02:42
  TRACK 58 AUDIO
    TITLE "9:cjc107_1924"
    INDEX 01 01:02:50
  TRACK 59 AUDIO
    TITLE "0:"
    INDEX 01 01:05:52
  TRACK 60 AUDIO
    TITLE "10:cjc107_1925"
    INDEX 01 01:07:23
  TRACK 61 AUDIO
    TITLE "10:cjc107_1926"
    INDEX 01 01:18:27
  TRACK 62 AUDIO
    TITLE "10:cjc107_1927"
    INDEX 01 01:26:64
  TRACK 63 AUDIO
    TITLE "10:cjc107_1928"
    INDEX 01 01:31:65
  TRACK 64 AUDIO
    TITLE "0:"
    INDEX 01 01:41:52
